<?xml version="1.0" encoding="iso-8859-1"?>
<!-- Generator: Adobe Illustrator 19.0.0, SVG Export Plug-In . SVG Version: 6.00 Build 0)  -->
<svg version="1.1" id="Layer_1" xmlns="http://www.w3.org/2000/svg" xmlns:xlink="http://www.w3.org/1999/xlink" x="0px" y="0px"
	 viewBox="0 0 512 512" style="enable-background:new 0 0 512 512;" xml:space="preserve">
<g>
	<g>
		<path d="M444.781,311.652H67.219c-0.216,3.692-0.436,7.384-0.436,11.13C66.783,427.284,151.497,512,256,512
			c104.501,0,189.217-84.716,189.217-189.217C445.217,319.036,444.997,315.344,444.781,311.652z M183.652,378.435
			c-9.22,0-16.696-7.475-16.696-16.696s7.475-16.696,16.696-16.696c9.22,0,16.696,7.475,16.696,16.696
			S192.873,378.435,183.652,378.435z M283.826,445.217c-27.662,0-50.087-22.424-50.087-50.087s22.424-50.087,50.087-50.087
			c27.662,0,50.087,22.424,50.087,50.087S311.488,445.217,283.826,445.217z"/>
	</g>
</g>
<g>
	<g>
		<path d="M323.151,145.931V33.391h16.327c9.22,0,16.696-7.475,16.696-16.696S348.699,0,339.478,0H172.522
			c-9.22,0-16.696,7.475-16.696,16.696s7.475,16.696,16.696,16.696h17.064v112.54c-57.878,21.868-102.748,71.284-117.507,132.33
			H439.92C425.163,217.215,381.029,167.799,323.151,145.931z M250.435,244.87c-9.22,0-16.696-7.475-16.696-16.696
			c0-9.22,7.475-16.696,16.696-16.696c9.22,0,16.696,7.475,16.696,16.696C267.13,237.394,259.655,244.87,250.435,244.87z"/>
	</g>
</g>
<g>
</g>
<g>
</g>
<g>
</g>
<g>
</g>
<g>
</g>
<g>
</g>
<g>
</g>
<g>
</g>
<g>
</g>
<g>
</g>
<g>
</g>
<g>
</g>
<g>
</g>
<g>
</g>
<g>
</g>
</svg>
